# xmcd CD database file
#
# Track frame offsets:
#	150
#	19587
#	35362
#	52067
#
# Disc length: 1083 seconds
#
# Revision: 0
# Processed by: cddbd v1.5PL3 Copyright (c) Steve Scherf et al.
# Submitted via: CDex 1.50beta10
#
DISCID=2a043904
DTITLE=ZEEBRA - THE　RHYME　ANIMAL　REMIX　E.P.１
DYEAR=1900
DGENRE=Hip-Hop
TTITLE0=ORIGINAL　RHYME　ANIMAL　Mr.Drunk　Remix
TTITLE1=I'M　STILL　NO.1　Numbero　Uno　Re-Recording
TTITLE2=I'M　STILL　NO.1　Original　Version
TTITLE3=未来への鍵　Osawa's　Realized　Mix　feat.Bird
EXTD=
EXTT0=
EXTT1=
EXTT2=
EXTT3=
PLAYORDER=
